<svg width="150" height="150" viewBox="0 0 150 150" fill="none" xmlns="http://www.w3.org/2000/svg">
<path d="M105.567 35.5469C105.273 35.1817 104.901 34.8869 104.479 34.6841C104.056 34.4813 103.594 34.3757 103.125 34.375H93.75V65.625H129.628L105.567 35.5469Z" fill="#FF8B14"/>
<path d="M37.5 121.875C44.4036 121.875 50 116.279 50 109.375C50 102.471 44.4036 96.875 37.5 96.875C30.5964 96.875 25 102.471 25 109.375C25 116.279 30.5964 121.875 37.5 121.875Z" fill="#FF8B14"/>
<path d="M142.023 72.2047L141.152 71.7691C140.98 71.8202 140.803 71.8557 140.625 71.875H90.625C89.7962 71.875 89.0013 71.5458 88.4153 70.9597C87.8292 70.3737 87.5 69.5788 87.5 68.75V34.375H9.375C8.5462 34.375 7.75134 34.7042 7.16529 35.2903C6.57924 35.8763 6.25 36.6712 6.25 37.5V106.25C6.25 107.079 6.57924 107.874 7.16529 108.46C7.75134 109.046 8.5462 109.375 9.375 109.375H18.75C18.75 104.402 20.7254 99.633 24.2417 96.1167C27.7581 92.6004 32.5272 90.625 37.5 90.625C42.4728 90.625 47.2419 92.6004 50.7583 96.1167C54.2746 99.633 56.25 104.402 56.25 109.375H93.75C93.75 104.402 95.7254 99.633 99.2417 96.1167C102.758 92.6004 107.527 90.625 112.5 90.625C117.473 90.625 122.242 92.6004 125.758 96.1167C129.275 99.633 131.25 104.402 131.25 109.375H140.625C141.454 109.375 142.249 109.046 142.835 108.46C143.421 107.874 143.75 107.079 143.75 106.25V75C143.75 74.4196 143.589 73.8507 143.283 73.357C142.978 72.8633 142.542 72.4643 142.023 72.2047ZM59.375 68.75H53.125V75C53.125 75.8288 52.7958 76.6237 52.2097 77.2097C51.6237 77.7958 50.8288 78.125 50 78.125C49.1712 78.125 48.3763 77.7958 47.7903 77.2097C47.2042 76.6237 46.875 75.8288 46.875 75V68.75H40.625C39.7962 68.75 39.0013 68.4208 38.4153 67.8347C37.8292 67.2487 37.5 66.4538 37.5 65.625C37.5 64.7962 37.8292 64.0013 38.4153 63.4153C39.0013 62.8292 39.7962 62.5 40.625 62.5H46.875V56.25C46.875 55.4212 47.2042 54.6263 47.7903 54.0403C48.3763 53.4542 49.1712 53.125 50 53.125C50.8288 53.125 51.6237 53.4542 52.2097 54.0403C52.7958 54.6263 53.125 55.4212 53.125 56.25V62.5H59.375C60.2038 62.5 60.9987 62.8292 61.5847 63.4153C62.1708 64.0013 62.5 64.7962 62.5 65.625C62.5 66.4538 62.1708 67.2487 61.5847 67.8347C60.9987 68.4208 60.2038 68.75 59.375 68.75Z" fill="#FF8B14"/>
<path d="M112.5 121.875C119.404 121.875 125 116.279 125 109.375C125 102.471 119.404 96.875 112.5 96.875C105.596 96.875 100 102.471 100 109.375C100 116.279 105.596 121.875 112.5 121.875Z" fill="#FF8B14"/>
</svg>
