<svg width="150" height="150" viewBox="0 0 150 150" fill="none" xmlns="http://www.w3.org/2000/svg">
<path d="M62.5 56.25H43.75V68.75H62.5V56.25Z" fill="#FF8B14"/>
<path d="M106.25 56.25H87.5V68.75H106.25V56.25Z" fill="#FF8B14"/>
<path d="M37.5 53.125C37.5 52.2962 37.8292 51.5013 38.4153 50.9153C39.0013 50.3292 39.7962 50 40.625 50H65.625C66.4538 50 67.2487 50.3292 67.8347 50.9153C68.4208 51.5013 68.75 52.2962 68.75 53.125V68.75H81.25V53.125C81.25 52.2962 81.5792 51.5013 82.1653 50.9153C82.7513 50.3292 83.5462 50 84.375 50H109.375C110.204 50 110.999 50.3292 111.585 50.9153C112.171 51.5013 112.5 52.2962 112.5 53.125V68.75H131.25V34.375C131.25 33.5462 130.921 32.7513 130.335 32.1653C129.749 31.5792 128.954 31.25 128.125 31.25H21.875C21.0462 31.25 20.2513 31.5792 19.6653 32.1653C19.0792 32.7513 18.75 33.5462 18.75 34.375V68.75H37.5V53.125Z" fill="#FF8B14"/>
<path d="M131.25 75H18.75C15.5074 75.2204 12.4544 76.6081 10.1563 78.9063C7.85812 81.2044 6.47039 84.2574 6.25 87.5V121.875C6.25 122.704 6.57924 123.499 7.16529 124.085C7.75134 124.671 8.5462 125 9.375 125H15.625C16.4538 125 17.2487 124.671 17.8347 124.085C18.4208 123.499 18.75 122.704 18.75 121.875V106.25H131.25V121.875C131.25 122.704 131.579 123.499 132.165 124.085C132.751 124.671 133.546 125 134.375 125H140.625C141.454 125 142.249 124.671 142.835 124.085C143.421 123.499 143.75 122.704 143.75 121.875V87.5C143.53 84.2574 142.142 81.2044 139.844 78.9063C137.546 76.6081 134.493 75.2204 131.25 75Z" fill="#FF8B14"/>
</svg>
