<svg width="150" height="150" viewBox="0 0 150 150" fill="none" xmlns="http://www.w3.org/2000/svg">
<path d="M105.954 90.6918C97.3871 83.2034 86.3947 79.0764 75.016 79.0764C63.6374 79.0764 52.6449 83.2034 44.0777 90.6918L40.3281 94.0597L75.0158 126.923L109.703 94.0616L105.954 90.6918Z" fill="#FF8B14"/>
<path d="M126.425 71.5098C112.608 58.2236 94.1838 50.8025 75.0153 50.8025C55.8469 50.8025 37.4228 58.2236 23.606 71.5098L20.0879 74.8866L33.5555 87.6454L37.8628 83.7745C48.1389 74.7572 61.3438 69.785 75.0153 69.785C88.6869 69.785 101.892 74.7572 112.168 83.7745L116.475 87.6454L129.943 74.8866L126.425 71.5098Z" fill="#FF8B14"/>
<path d="M13.3313 68.4854L17.1697 64.8009C32.7173 49.854 53.4471 41.5056 75.0142 41.5056C96.5813 41.5056 117.311 49.854 132.859 64.8009L136.7 68.4873L146.683 59.0295C147.136 58.6001 147.498 58.084 147.748 57.5118C147.997 56.9396 148.129 56.323 148.135 55.6988C148.142 55.0746 148.023 54.4555 147.785 53.8783C147.547 53.3011 147.195 52.7777 146.751 52.3391C127.634 33.4867 101.865 22.9175 75.0156 22.9175C48.1666 22.9175 22.3968 33.4867 3.28 52.3391C2.83575 52.7777 2.48426 53.3011 2.24645 53.8783C2.00864 54.4555 1.88938 55.0746 1.89575 55.6988C1.90213 56.323 2.03401 56.9396 2.28356 57.5118C2.5331 58.084 2.89522 58.6001 3.34833 59.0295L13.3313 68.4854Z" fill="#FF8B14"/>
</svg>
